<?xml version="1.0" encoding="UTF-8" standalone="no"?>
<!DOCTYPE svg PUBLIC "-//W3C//DTD SVG 1.1//EN"
 "http://www.w3.org/Graphics/SVG/1.1/DTD/svg11.dtd">
<!-- Generated by graphviz version 2.47.0 (20210316.0004)
 -->
<!-- Title: dependencies Pages: 1 -->
<svg width="504pt" height="284pt"
 viewBox="0.00 0.00 504.00 284.00" xmlns="http://www.w3.org/2000/svg" xmlns:xlink="http://www.w3.org/1999/xlink">
<g id="graph0" class="graph" transform="scale(1 1) rotate(0) translate(4 280)">
<title>dependencies</title>
<polygon fill="white" stroke="transparent" points="-4,4 -4,-280 500,-280 500,4 -4,4"/>
<text text-anchor="start" x="227.01" y="-42.4" font-family="sans-serif" font-weight="bold" font-size="14.00">Legend</text>
<polygon fill="#ffffb3" stroke="transparent" points="14,-10 14,-30 34,-30 34,-10 14,-10"/>
<text text-anchor="start" x="37.63" y="-15.4" font-family="sans-serif" font-size="14.00"> &#160;Declarations</text>
<polygon fill="#8dd3c7" stroke="transparent" points="127,-10 127,-30 147,-30 147,-10 127,-10"/>
<text text-anchor="start" x="150.73" y="-15.4" font-family="sans-serif" font-size="14.00"> &#160;Module</text>
<polygon fill="#80b1d3" stroke="transparent" points="213,-10 213,-30 233,-30 233,-10 213,-10"/>
<text text-anchor="start" x="236.78" y="-15.4" font-family="sans-serif" font-size="14.00"> &#160;Bootstrap</text>
<polygon fill="#fdb462" stroke="transparent" points="310,-10 310,-30 330,-30 330,-10 310,-10"/>
<text text-anchor="start" x="333.67" y="-15.4" font-family="sans-serif" font-size="14.00"> &#160;Providers</text>
<polygon fill="#fb8072" stroke="transparent" points="406,-10 406,-30 426,-30 426,-10 406,-10"/>
<text text-anchor="start" x="429.73" y="-15.4" font-family="sans-serif" font-size="14.00"> &#160;Exports</text>
<g id="clust1" class="cluster">
<title>cluster_LotteryModule</title>
<polygon fill="none" stroke="black" stroke-dasharray="1,5" points="91,-70 91,-268 405,-268 405,-70 91,-70"/>
</g>
<g id="clust5" class="cluster">
<title>cluster_LotteryModule_exports</title>
<polygon fill="none" stroke="black" points="174,-208 174,-260 316,-260 316,-208 174,-208"/>
</g>
<g id="clust7" class="cluster">
<title>cluster_LotteryModule_providers</title>
<polygon fill="none" stroke="black" points="245,-78 245,-130 397,-130 397,-78 245,-78"/>
</g>
<g id="clust2" class="cluster">
<title>cluster_LotteryModule_declarations</title>
<polygon fill="none" stroke="black" points="99,-78 99,-130 237,-130 237,-78 99,-78"/>
</g>
<!-- LotteryComponent -->
<g id="node1" class="node">
<title>LotteryComponent</title>
<polygon fill="#ffffb3" stroke="black" points="229.04,-122 106.96,-122 106.96,-86 229.04,-86 229.04,-122"/>
<text text-anchor="middle" x="168" y="-99.8" font-family="Times,serif" font-size="14.00">LotteryComponent</text>
</g>
<!-- LotteryModule -->
<g id="node2" class="node">
<title>LotteryModule</title>
<polygon fill="#8dd3c7" stroke="black" points="295.26,-187 292.26,-191 271.26,-191 268.26,-187 194.74,-187 194.74,-151 295.26,-151 295.26,-187"/>
<text text-anchor="middle" x="245" y="-164.8" font-family="Times,serif" font-size="14.00">LotteryModule</text>
</g>
<!-- LotteryComponent&#45;&gt;LotteryModule -->
<g id="edge1" class="edge">
<title>LotteryComponent&#45;&gt;LotteryModule</title>
<path fill="none" stroke="black" d="M211.95,-122.11C211.95,-122.11 211.95,-140.99 211.95,-140.99"/>
<polygon fill="black" stroke="black" points="208.45,-140.99 211.95,-150.99 215.45,-140.99 208.45,-140.99"/>
</g>
<!-- LotteryComponent  -->
<g id="node3" class="node">
<title>LotteryComponent </title>
<polygon fill="#fb8072" stroke="black" points="308.04,-252 181.96,-252 181.96,-216 308.04,-216 308.04,-252"/>
<text text-anchor="middle" x="245" y="-229.8" font-family="Times,serif" font-size="14.00">LotteryComponent </text>
</g>
<!-- LotteryModule&#45;&gt;LotteryComponent  -->
<g id="edge2" class="edge">
<title>LotteryModule&#45;&gt;LotteryComponent </title>
<path fill="none" stroke="black" stroke-dasharray="5,2" d="M245,-187.11C245,-187.11 245,-205.99 245,-205.99"/>
<polygon fill="black" stroke="black" points="241.5,-205.99 245,-215.99 248.5,-205.99 241.5,-205.99"/>
</g>
<!-- LotteryService -->
<g id="node4" class="node">
<title>LotteryService</title>
<ellipse fill="#fdb462" stroke="black" cx="321" cy="-104" rx="68.33" ry="18"/>
<text text-anchor="middle" x="321" y="-99.8" font-family="Times,serif" font-size="14.00">LotteryService</text>
</g>
<!-- LotteryService&#45;&gt;LotteryModule -->
<g id="edge3" class="edge">
<title>LotteryService&#45;&gt;LotteryModule</title>
<path fill="none" stroke="black" d="M273.98,-117.15C273.98,-117.15 273.98,-140.69 273.98,-140.69"/>
<polygon fill="black" stroke="black" points="270.48,-140.69 273.98,-150.69 277.48,-140.69 270.48,-140.69"/>
</g>
</g>
</svg>
