<?xml version="1.0" encoding="UTF-8" standalone="no"?>
<!DOCTYPE svg PUBLIC "-//W3C//DTD SVG 1.1//EN"
 "http://www.w3.org/Graphics/SVG/1.1/DTD/svg11.dtd">
<!-- Generated by graphviz version 2.47.0 (20210316.0004)
 -->
<!-- Title: dependencies Pages: 1 -->
<svg width="620pt" height="284pt"
 viewBox="0.00 0.00 620.00 284.00" xmlns="http://www.w3.org/2000/svg" xmlns:xlink="http://www.w3.org/1999/xlink">
<g id="graph0" class="graph" transform="scale(1 1) rotate(0) translate(4 280)">
<title>dependencies</title>
<polygon fill="white" stroke="transparent" points="-4,4 -4,-280 616,-280 616,4 -4,4"/>
<text text-anchor="start" x="285.01" y="-42.4" font-family="sans-serif" font-weight="bold" font-size="14.00">Legend</text>
<polygon fill="#ffffb3" stroke="transparent" points="72,-10 72,-30 92,-30 92,-10 72,-10"/>
<text text-anchor="start" x="95.63" y="-15.4" font-family="sans-serif" font-size="14.00"> &#160;Declarations</text>
<polygon fill="#8dd3c7" stroke="transparent" points="185,-10 185,-30 205,-30 205,-10 185,-10"/>
<text text-anchor="start" x="208.73" y="-15.4" font-family="sans-serif" font-size="14.00"> &#160;Module</text>
<polygon fill="#80b1d3" stroke="transparent" points="271,-10 271,-30 291,-30 291,-10 271,-10"/>
<text text-anchor="start" x="294.78" y="-15.4" font-family="sans-serif" font-size="14.00"> &#160;Bootstrap</text>
<polygon fill="#fdb462" stroke="transparent" points="368,-10 368,-30 388,-30 388,-10 368,-10"/>
<text text-anchor="start" x="391.67" y="-15.4" font-family="sans-serif" font-size="14.00"> &#160;Providers</text>
<polygon fill="#fb8072" stroke="transparent" points="464,-10 464,-30 484,-30 484,-10 464,-10"/>
<text text-anchor="start" x="487.73" y="-15.4" font-family="sans-serif" font-size="14.00"> &#160;Exports</text>
<g id="clust1" class="cluster">
<title>cluster_LotteryResultLotteryModule</title>
<polygon fill="none" stroke="black" stroke-dasharray="1,5" points="8,-70 8,-268 604,-268 604,-70 8,-70"/>
</g>
<g id="clust7" class="cluster">
<title>cluster_LotteryResultLotteryModule_exports</title>
<polygon fill="none" stroke="black" points="208,-208 208,-260 386,-260 386,-208 208,-208"/>
</g>
<g id="clust2" class="cluster">
<title>cluster_LotteryResultLotteryModule_declarations</title>
<polygon fill="none" stroke="black" points="16,-78 16,-130 596,-130 596,-78 16,-78"/>
</g>
<!-- MessageEndLotteryComponent -->
<g id="node1" class="node">
<title>MessageEndLotteryComponent</title>
<polygon fill="#ffffb3" stroke="black" points="588.07,-122 393.93,-122 393.93,-86 588.07,-86 588.07,-122"/>
<text text-anchor="middle" x="491" y="-99.8" font-family="Times,serif" font-size="14.00">MessageEndLotteryComponent</text>
</g>
<!-- LotteryResultLotteryModule -->
<g id="node4" class="node">
<title>LotteryResultLotteryModule</title>
<polygon fill="#8dd3c7" stroke="black" points="385.74,-187 382.74,-191 361.74,-191 358.74,-187 208.26,-187 208.26,-151 385.74,-151 385.74,-187"/>
<text text-anchor="middle" x="297" y="-164.8" font-family="Times,serif" font-size="14.00">LotteryResultLotteryModule</text>
</g>
<!-- MessageEndLotteryComponent&#45;&gt;LotteryResultLotteryModule -->
<g id="edge1" class="edge">
<title>MessageEndLotteryComponent&#45;&gt;LotteryResultLotteryModule</title>
<path fill="none" stroke="black" d="M393.63,-104C385.91,-104 381.02,-104 381.02,-104 381.02,-104 381.02,-140.89 381.02,-140.89"/>
<polygon fill="black" stroke="black" points="377.52,-140.89 381.02,-150.89 384.52,-140.89 377.52,-140.89"/>
</g>
<!-- ResultLotteryComponent -->
<g id="node2" class="node">
<title>ResultLotteryComponent</title>
<polygon fill="#ffffb3" stroke="black" points="376.32,-122 217.68,-122 217.68,-86 376.32,-86 376.32,-122"/>
<text text-anchor="middle" x="297" y="-99.8" font-family="Times,serif" font-size="14.00">ResultLotteryComponent</text>
</g>
<!-- ResultLotteryComponent&#45;&gt;LotteryResultLotteryModule -->
<g id="edge2" class="edge">
<title>ResultLotteryComponent&#45;&gt;LotteryResultLotteryModule</title>
<path fill="none" stroke="black" d="M297,-122.11C297,-122.11 297,-140.99 297,-140.99"/>
<polygon fill="black" stroke="black" points="293.5,-140.99 297,-150.99 300.5,-140.99 293.5,-140.99"/>
</g>
<!-- WinningNumberComponent -->
<g id="node3" class="node">
<title>WinningNumberComponent</title>
<polygon fill="#ffffb3" stroke="black" points="200.2,-122 23.8,-122 23.8,-86 200.2,-86 200.2,-122"/>
<text text-anchor="middle" x="112" y="-99.8" font-family="Times,serif" font-size="14.00">WinningNumberComponent</text>
</g>
<!-- WinningNumberComponent&#45;&gt;LotteryResultLotteryModule -->
<g id="edge3" class="edge">
<title>WinningNumberComponent&#45;&gt;LotteryResultLotteryModule</title>
<path fill="none" stroke="black" d="M200.19,-104C207.98,-104 212.98,-104 212.98,-104 212.98,-104 212.98,-140.89 212.98,-140.89"/>
<polygon fill="black" stroke="black" points="209.48,-140.89 212.98,-150.89 216.48,-140.89 209.48,-140.89"/>
</g>
<!-- ResultLotteryComponent  -->
<g id="node5" class="node">
<title>ResultLotteryComponent </title>
<polygon fill="#fb8072" stroke="black" points="377.82,-252 216.18,-252 216.18,-216 377.82,-216 377.82,-252"/>
<text text-anchor="middle" x="297" y="-229.8" font-family="Times,serif" font-size="14.00">ResultLotteryComponent </text>
</g>
<!-- LotteryResultLotteryModule&#45;&gt;ResultLotteryComponent  -->
<g id="edge4" class="edge">
<title>LotteryResultLotteryModule&#45;&gt;ResultLotteryComponent </title>
<path fill="none" stroke="black" stroke-dasharray="5,2" d="M297,-187.11C297,-187.11 297,-205.99 297,-205.99"/>
<polygon fill="black" stroke="black" points="293.5,-205.99 297,-215.99 300.5,-205.99 293.5,-205.99"/>
</g>
</g>
</svg>
