<?xml version="1.0" encoding="UTF-8" standalone="no"?>
<!DOCTYPE svg PUBLIC "-//W3C//DTD SVG 1.1//EN"
 "http://www.w3.org/Graphics/SVG/1.1/DTD/svg11.dtd">
<!-- Generated by graphviz version 2.47.0 (20210316.0004)
 -->
<!-- Title: dependencies Pages: 1 -->
<svg width="877pt" height="284pt"
 viewBox="0.00 0.00 877.00 284.00" xmlns="http://www.w3.org/2000/svg" xmlns:xlink="http://www.w3.org/1999/xlink">
<g id="graph0" class="graph" transform="scale(1 1) rotate(0) translate(4 280)">
<title>dependencies</title>
<polygon fill="white" stroke="transparent" points="-4,4 -4,-280 873,-280 873,4 -4,4"/>
<text text-anchor="start" x="413.51" y="-42.4" font-family="sans-serif" font-weight="bold" font-size="14.00">Legend</text>
<polygon fill="#ffffb3" stroke="transparent" points="200.5,-10 200.5,-30 220.5,-30 220.5,-10 200.5,-10"/>
<text text-anchor="start" x="224.13" y="-15.4" font-family="sans-serif" font-size="14.00"> &#160;Declarations</text>
<polygon fill="#8dd3c7" stroke="transparent" points="313.5,-10 313.5,-30 333.5,-30 333.5,-10 313.5,-10"/>
<text text-anchor="start" x="337.23" y="-15.4" font-family="sans-serif" font-size="14.00"> &#160;Module</text>
<polygon fill="#80b1d3" stroke="transparent" points="399.5,-10 399.5,-30 419.5,-30 419.5,-10 399.5,-10"/>
<text text-anchor="start" x="423.28" y="-15.4" font-family="sans-serif" font-size="14.00"> &#160;Bootstrap</text>
<polygon fill="#fdb462" stroke="transparent" points="496.5,-10 496.5,-30 516.5,-30 516.5,-10 496.5,-10"/>
<text text-anchor="start" x="520.17" y="-15.4" font-family="sans-serif" font-size="14.00"> &#160;Providers</text>
<polygon fill="#fb8072" stroke="transparent" points="592.5,-10 592.5,-30 612.5,-30 612.5,-10 592.5,-10"/>
<text text-anchor="start" x="616.23" y="-15.4" font-family="sans-serif" font-size="14.00"> &#160;Exports</text>
<g id="clust1" class="cluster">
<title>cluster_LotteryTicketModule</title>
<polygon fill="none" stroke="black" stroke-dasharray="1,5" points="8,-70 8,-268 861,-268 861,-70 8,-70"/>
</g>
<g id="clust2" class="cluster">
<title>cluster_LotteryTicketModule_declarations</title>
<polygon fill="none" stroke="black" points="218,-78 218,-130 853,-130 853,-78 218,-78"/>
</g>
<g id="clust8" class="cluster">
<title>cluster_LotteryTicketModule_exports</title>
<polygon fill="none" stroke="black" points="368,-208 368,-260 504,-260 504,-208 368,-208"/>
</g>
<g id="clust10" class="cluster">
<title>cluster_LotteryTicketModule_providers</title>
<polygon fill="none" stroke="black" points="16,-78 16,-130 210,-130 210,-78 16,-78"/>
</g>
<!-- BallsTicketComponent -->
<g id="node1" class="node">
<title>BallsTicketComponent</title>
<polygon fill="#ffffb3" stroke="black" points="844.87,-122 699.13,-122 699.13,-86 844.87,-86 844.87,-122"/>
<text text-anchor="middle" x="772" y="-99.8" font-family="Times,serif" font-size="14.00">BallsTicketComponent</text>
</g>
<!-- LotteryTicketModule -->
<g id="node5" class="node">
<title>LotteryTicketModule</title>
<polygon fill="#8dd3c7" stroke="black" points="504.02,-187 501.02,-191 480.02,-191 477.02,-187 367.98,-187 367.98,-151 504.02,-151 504.02,-187"/>
<text text-anchor="middle" x="436" y="-164.8" font-family="Times,serif" font-size="14.00">LotteryTicketModule</text>
</g>
<!-- BallsTicketComponent&#45;&gt;LotteryTicketModule -->
<g id="edge1" class="edge">
<title>BallsTicketComponent&#45;&gt;LotteryTicketModule</title>
<path fill="none" stroke="black" d="M772,-122.28C772,-143.32 772,-175 772,-175 772,-175 514.4,-175 514.4,-175"/>
<polygon fill="black" stroke="black" points="514.4,-171.5 504.4,-175 514.4,-178.5 514.4,-171.5"/>
</g>
<!-- LotteryFormComponent -->
<g id="node2" class="node">
<title>LotteryFormComponent</title>
<polygon fill="#ffffb3" stroke="black" points="681.38,-122 528.62,-122 528.62,-86 681.38,-86 681.38,-122"/>
<text text-anchor="middle" x="605" y="-99.8" font-family="Times,serif" font-size="14.00">LotteryFormComponent</text>
</g>
<!-- LotteryFormComponent&#45;&gt;LotteryTicketModule -->
<g id="edge2" class="edge">
<title>LotteryFormComponent&#45;&gt;LotteryTicketModule</title>
<path fill="none" stroke="black" d="M605,-122.02C605,-139.37 605,-163 605,-163 605,-163 514.25,-163 514.25,-163"/>
<polygon fill="black" stroke="black" points="514.25,-159.5 504.25,-163 514.25,-166.5 514.25,-159.5"/>
</g>
<!-- ResetTicketComponent -->
<g id="node3" class="node">
<title>ResetTicketComponent</title>
<polygon fill="#ffffb3" stroke="black" points="510.2,-122 361.8,-122 361.8,-86 510.2,-86 510.2,-122"/>
<text text-anchor="middle" x="436" y="-99.8" font-family="Times,serif" font-size="14.00">ResetTicketComponent</text>
</g>
<!-- ResetTicketComponent&#45;&gt;LotteryTicketModule -->
<g id="edge3" class="edge">
<title>ResetTicketComponent&#45;&gt;LotteryTicketModule</title>
<path fill="none" stroke="black" d="M436,-122.11C436,-122.11 436,-140.99 436,-140.99"/>
<polygon fill="black" stroke="black" points="432.5,-140.99 436,-150.99 439.5,-140.99 432.5,-140.99"/>
</g>
<!-- TicketComponent -->
<g id="node4" class="node">
<title>TicketComponent</title>
<polygon fill="#ffffb3" stroke="black" points="343.6,-122 226.4,-122 226.4,-86 343.6,-86 343.6,-122"/>
<text text-anchor="middle" x="285" y="-99.8" font-family="Times,serif" font-size="14.00">TicketComponent</text>
</g>
<!-- TicketComponent&#45;&gt;LotteryTicketModule -->
<g id="edge4" class="edge">
<title>TicketComponent&#45;&gt;LotteryTicketModule</title>
<path fill="none" stroke="black" d="M285,-122.02C285,-139.37 285,-163 285,-163 285,-163 357.57,-163 357.57,-163"/>
<polygon fill="black" stroke="black" points="357.57,-166.5 367.57,-163 357.57,-159.5 357.57,-166.5"/>
</g>
<!-- TicketComponent  -->
<g id="node6" class="node">
<title>TicketComponent </title>
<polygon fill="#fb8072" stroke="black" points="496.1,-252 375.9,-252 375.9,-216 496.1,-216 496.1,-252"/>
<text text-anchor="middle" x="436" y="-229.8" font-family="Times,serif" font-size="14.00">TicketComponent </text>
</g>
<!-- LotteryTicketModule&#45;&gt;TicketComponent  -->
<g id="edge5" class="edge">
<title>LotteryTicketModule&#45;&gt;TicketComponent </title>
<path fill="none" stroke="black" stroke-dasharray="5,2" d="M436,-187.11C436,-187.11 436,-205.99 436,-205.99"/>
<polygon fill="black" stroke="black" points="432.5,-205.99 436,-215.99 439.5,-205.99 432.5,-205.99"/>
</g>
<!-- LotteryFormService -->
<g id="node7" class="node">
<title>LotteryFormService</title>
<ellipse fill="#fdb462" stroke="black" cx="113" cy="-104" rx="89.18" ry="18"/>
<text text-anchor="middle" x="113" y="-99.8" font-family="Times,serif" font-size="14.00">LotteryFormService</text>
</g>
<!-- LotteryFormService&#45;&gt;LotteryTicketModule -->
<g id="edge6" class="edge">
<title>LotteryFormService&#45;&gt;LotteryTicketModule</title>
<path fill="none" stroke="black" d="M113,-122.28C113,-143.32 113,-175 113,-175 113,-175 357.89,-175 357.89,-175"/>
<polygon fill="black" stroke="black" points="357.89,-178.5 367.89,-175 357.89,-171.5 357.89,-178.5"/>
</g>
</g>
</svg>
