<?xml version="1.0" encoding="UTF-8" standalone="no"?>
<!DOCTYPE svg PUBLIC "-//W3C//DTD SVG 1.1//EN"
 "http://www.w3.org/Graphics/SVG/1.1/DTD/svg11.dtd">
<!-- Generated by graphviz version 2.47.0 (20210316.0004)
 -->
<!-- Title: dependencies Pages: 1 -->
<svg width="528pt" height="284pt"
 viewBox="0.00 0.00 528.00 284.00" xmlns="http://www.w3.org/2000/svg" xmlns:xlink="http://www.w3.org/1999/xlink">
<g id="graph0" class="graph" transform="scale(1 1) rotate(0) translate(4 280)">
<title>dependencies</title>
<polygon fill="white" stroke="transparent" points="-4,4 -4,-280 524,-280 524,4 -4,4"/>
<text text-anchor="start" x="239.01" y="-42.4" font-family="sans-serif" font-weight="bold" font-size="14.00">Legend</text>
<polygon fill="#ffffb3" stroke="transparent" points="26,-10 26,-30 46,-30 46,-10 26,-10"/>
<text text-anchor="start" x="49.63" y="-15.4" font-family="sans-serif" font-size="14.00"> &#160;Declarations</text>
<polygon fill="#8dd3c7" stroke="transparent" points="139,-10 139,-30 159,-30 159,-10 139,-10"/>
<text text-anchor="start" x="162.73" y="-15.4" font-family="sans-serif" font-size="14.00"> &#160;Module</text>
<polygon fill="#80b1d3" stroke="transparent" points="225,-10 225,-30 245,-30 245,-10 225,-10"/>
<text text-anchor="start" x="248.78" y="-15.4" font-family="sans-serif" font-size="14.00"> &#160;Bootstrap</text>
<polygon fill="#fdb462" stroke="transparent" points="322,-10 322,-30 342,-30 342,-10 322,-10"/>
<text text-anchor="start" x="345.67" y="-15.4" font-family="sans-serif" font-size="14.00"> &#160;Providers</text>
<polygon fill="#fb8072" stroke="transparent" points="418,-10 418,-30 438,-30 438,-10 418,-10"/>
<text text-anchor="start" x="441.73" y="-15.4" font-family="sans-serif" font-size="14.00"> &#160;Exports</text>
<g id="clust1" class="cluster">
<title>cluster_LotteryListTicketsModule</title>
<polygon fill="none" stroke="black" stroke-dasharray="1,5" points="8,-70 8,-268 512,-268 512,-70 8,-70"/>
</g>
<g id="clust2" class="cluster">
<title>cluster_LotteryListTicketsModule_declarations</title>
<polygon fill="none" stroke="black" points="16,-78 16,-130 504,-130 504,-78 16,-78"/>
</g>
<g id="clust7" class="cluster">
<title>cluster_LotteryListTicketsModule_exports</title>
<polygon fill="none" stroke="black" points="156,-208 156,-260 320,-260 320,-208 156,-208"/>
</g>
<!-- ButtonsEndLotteryComponent -->
<g id="node1" class="node">
<title>ButtonsEndLotteryComponent</title>
<polygon fill="#ffffb3" stroke="black" points="496.16,-122 307.84,-122 307.84,-86 496.16,-86 496.16,-122"/>
<text text-anchor="middle" x="402" y="-99.8" font-family="Times,serif" font-size="14.00">ButtonsEndLotteryComponent</text>
</g>
<!-- LotteryListTicketsModule -->
<g id="node4" class="node">
<title>LotteryListTicketsModule</title>
<polygon fill="#8dd3c7" stroke="black" points="319.74,-187 316.74,-191 295.74,-191 292.74,-187 156.26,-187 156.26,-151 319.74,-151 319.74,-187"/>
<text text-anchor="middle" x="238" y="-164.8" font-family="Times,serif" font-size="14.00">LotteryListTicketsModule</text>
</g>
<!-- ButtonsEndLotteryComponent&#45;&gt;LotteryListTicketsModule -->
<g id="edge1" class="edge">
<title>ButtonsEndLotteryComponent&#45;&gt;LotteryListTicketsModule</title>
<path fill="none" stroke="black" d="M313.77,-122.11C313.77,-122.11 313.77,-140.99 313.77,-140.99"/>
<polygon fill="black" stroke="black" points="310.27,-140.99 313.77,-150.99 317.27,-140.99 310.27,-140.99"/>
</g>
<!-- ListComponent -->
<g id="node2" class="node">
<title>ListComponent</title>
<polygon fill="#ffffb3" stroke="black" points="289.61,-122 186.39,-122 186.39,-86 289.61,-86 289.61,-122"/>
<text text-anchor="middle" x="238" y="-99.8" font-family="Times,serif" font-size="14.00">ListComponent</text>
</g>
<!-- ListComponent&#45;&gt;LotteryListTicketsModule -->
<g id="edge2" class="edge">
<title>ListComponent&#45;&gt;LotteryListTicketsModule</title>
<path fill="none" stroke="black" d="M238,-122.11C238,-122.11 238,-140.99 238,-140.99"/>
<polygon fill="black" stroke="black" points="234.5,-140.99 238,-150.99 241.5,-140.99 234.5,-140.99"/>
</g>
<!-- ListTicketsComponent -->
<g id="node3" class="node">
<title>ListTicketsComponent</title>
<polygon fill="#ffffb3" stroke="black" points="168.32,-122 23.68,-122 23.68,-86 168.32,-86 168.32,-122"/>
<text text-anchor="middle" x="96" y="-99.8" font-family="Times,serif" font-size="14.00">ListTicketsComponent</text>
</g>
<!-- ListTicketsComponent&#45;&gt;LotteryListTicketsModule -->
<g id="edge3" class="edge">
<title>ListTicketsComponent&#45;&gt;LotteryListTicketsModule</title>
<path fill="none" stroke="black" d="M162.14,-122.11C162.14,-122.11 162.14,-140.99 162.14,-140.99"/>
<polygon fill="black" stroke="black" points="158.64,-140.99 162.14,-150.99 165.64,-140.99 158.64,-140.99"/>
</g>
<!-- ListTicketsComponent  -->
<g id="node5" class="node">
<title>ListTicketsComponent </title>
<polygon fill="#fb8072" stroke="black" points="311.82,-252 164.18,-252 164.18,-216 311.82,-216 311.82,-252"/>
<text text-anchor="middle" x="238" y="-229.8" font-family="Times,serif" font-size="14.00">ListTicketsComponent </text>
</g>
<!-- LotteryListTicketsModule&#45;&gt;ListTicketsComponent  -->
<g id="edge4" class="edge">
<title>LotteryListTicketsModule&#45;&gt;ListTicketsComponent </title>
<path fill="none" stroke="black" stroke-dasharray="5,2" d="M238,-187.11C238,-187.11 238,-205.99 238,-205.99"/>
<polygon fill="black" stroke="black" points="234.5,-205.99 238,-215.99 241.5,-205.99 234.5,-205.99"/>
</g>
</g>
</svg>
