<?xml version="1.0" encoding="UTF-8" standalone="no"?>
<!DOCTYPE svg PUBLIC "-//W3C//DTD SVG 1.1//EN"
 "http://www.w3.org/Graphics/SVG/1.1/DTD/svg11.dtd">
<!-- Generated by graphviz version 2.47.0 (20210316.0004)
 -->
<!-- Title: dependencies Pages: 1 -->
<svg width="504pt" height="284pt"
 viewBox="0.00 0.00 504.00 284.00" xmlns="http://www.w3.org/2000/svg" xmlns:xlink="http://www.w3.org/1999/xlink">
<g id="graph0" class="graph" transform="scale(1 1) rotate(0) translate(4 280)">
<title>dependencies</title>
<polygon fill="white" stroke="transparent" points="-4,4 -4,-280 500,-280 500,4 -4,4"/>
<text text-anchor="start" x="227.01" y="-42.4" font-family="sans-serif" font-weight="bold" font-size="14.00">Legend</text>
<polygon fill="#ffffb3" stroke="transparent" points="14,-10 14,-30 34,-30 34,-10 14,-10"/>
<text text-anchor="start" x="37.63" y="-15.4" font-family="sans-serif" font-size="14.00"> &#160;Declarations</text>
<polygon fill="#8dd3c7" stroke="transparent" points="127,-10 127,-30 147,-30 147,-10 127,-10"/>
<text text-anchor="start" x="150.73" y="-15.4" font-family="sans-serif" font-size="14.00"> &#160;Module</text>
<polygon fill="#80b1d3" stroke="transparent" points="213,-10 213,-30 233,-30 233,-10 213,-10"/>
<text text-anchor="start" x="236.78" y="-15.4" font-family="sans-serif" font-size="14.00"> &#160;Bootstrap</text>
<polygon fill="#fdb462" stroke="transparent" points="310,-10 310,-30 330,-30 330,-10 310,-10"/>
<text text-anchor="start" x="333.67" y="-15.4" font-family="sans-serif" font-size="14.00"> &#160;Providers</text>
<polygon fill="#fb8072" stroke="transparent" points="406,-10 406,-30 426,-30 426,-10 406,-10"/>
<text text-anchor="start" x="429.73" y="-15.4" font-family="sans-serif" font-size="14.00"> &#160;Exports</text>
<g id="clust1" class="cluster">
<title>cluster_LotteryNumbersModule</title>
<polygon fill="none" stroke="black" stroke-dasharray="1,5" points="81.5,-70 81.5,-268 414.5,-268 414.5,-70 81.5,-70"/>
</g>
<g id="clust6" class="cluster">
<title>cluster_LotteryNumbersModule_exports</title>
<polygon fill="none" stroke="black" points="168.5,-208 168.5,-260 320.5,-260 320.5,-208 168.5,-208"/>
</g>
<g id="clust2" class="cluster">
<title>cluster_LotteryNumbersModule_declarations</title>
<polygon fill="none" stroke="black" points="89.5,-78 89.5,-130 406.5,-130 406.5,-78 89.5,-78"/>
</g>
<!-- BallSelectorComponent -->
<g id="node1" class="node">
<title>BallSelectorComponent</title>
<polygon fill="#ffffb3" stroke="black" points="398.53,-122 248.47,-122 248.47,-86 398.53,-86 398.53,-122"/>
<text text-anchor="middle" x="323.5" y="-99.8" font-family="Times,serif" font-size="14.00">BallSelectorComponent</text>
</g>
<!-- LotteryNumbersModule -->
<g id="node3" class="node">
<title>LotteryNumbersModule</title>
<polygon fill="#8dd3c7" stroke="black" points="320.58,-187 317.58,-191 296.58,-191 293.58,-187 168.42,-187 168.42,-151 320.58,-151 320.58,-187"/>
<text text-anchor="middle" x="244.5" y="-164.8" font-family="Times,serif" font-size="14.00">LotteryNumbersModule</text>
</g>
<!-- BallSelectorComponent&#45;&gt;LotteryNumbersModule -->
<g id="edge1" class="edge">
<title>BallSelectorComponent&#45;&gt;LotteryNumbersModule</title>
<path fill="none" stroke="black" d="M284.39,-122.11C284.39,-122.11 284.39,-140.99 284.39,-140.99"/>
<polygon fill="black" stroke="black" points="280.89,-140.99 284.39,-150.99 287.89,-140.99 280.89,-140.99"/>
</g>
<!-- NumbersComponent -->
<g id="node2" class="node">
<title>NumbersComponent</title>
<polygon fill="#ffffb3" stroke="black" points="229.65,-122 97.35,-122 97.35,-86 229.65,-86 229.65,-122"/>
<text text-anchor="middle" x="163.5" y="-99.8" font-family="Times,serif" font-size="14.00">NumbersComponent</text>
</g>
<!-- NumbersComponent&#45;&gt;LotteryNumbersModule -->
<g id="edge2" class="edge">
<title>NumbersComponent&#45;&gt;LotteryNumbersModule</title>
<path fill="none" stroke="black" d="M199.14,-122.11C199.14,-122.11 199.14,-140.99 199.14,-140.99"/>
<polygon fill="black" stroke="black" points="195.64,-140.99 199.14,-150.99 202.64,-140.99 195.64,-140.99"/>
</g>
<!-- NumbersComponent  -->
<g id="node4" class="node">
<title>NumbersComponent </title>
<polygon fill="#fb8072" stroke="black" points="312.65,-252 176.35,-252 176.35,-216 312.65,-216 312.65,-252"/>
<text text-anchor="middle" x="244.5" y="-229.8" font-family="Times,serif" font-size="14.00">NumbersComponent </text>
</g>
<!-- LotteryNumbersModule&#45;&gt;NumbersComponent  -->
<g id="edge3" class="edge">
<title>LotteryNumbersModule&#45;&gt;NumbersComponent </title>
<path fill="none" stroke="black" stroke-dasharray="5,2" d="M244.5,-187.11C244.5,-187.11 244.5,-205.99 244.5,-205.99"/>
<polygon fill="black" stroke="black" points="241,-205.99 244.5,-215.99 248,-205.99 241,-205.99"/>
</g>
</g>
</svg>
