<?xml version="1.0" encoding="UTF-8" standalone="no"?>
<!DOCTYPE svg PUBLIC "-//W3C//DTD SVG 1.1//EN"
 "http://www.w3.org/Graphics/SVG/1.1/DTD/svg11.dtd">
<!-- Generated by graphviz version 2.47.0 (20210316.0004)
 -->
<!-- Title: dependencies Pages: 1 -->
<svg width="754pt" height="284pt"
 viewBox="0.00 0.00 754.00 284.00" xmlns="http://www.w3.org/2000/svg" xmlns:xlink="http://www.w3.org/1999/xlink">
<g id="graph0" class="graph" transform="scale(1 1) rotate(0) translate(4 280)">
<title>dependencies</title>
<polygon fill="white" stroke="transparent" points="-4,4 -4,-280 750,-280 750,4 -4,4"/>
<text text-anchor="start" x="352.01" y="-42.4" font-family="sans-serif" font-weight="bold" font-size="14.00">Legend</text>
<polygon fill="#ffffb3" stroke="transparent" points="139,-10 139,-30 159,-30 159,-10 139,-10"/>
<text text-anchor="start" x="162.63" y="-15.4" font-family="sans-serif" font-size="14.00"> &#160;Declarations</text>
<polygon fill="#8dd3c7" stroke="transparent" points="252,-10 252,-30 272,-30 272,-10 252,-10"/>
<text text-anchor="start" x="275.73" y="-15.4" font-family="sans-serif" font-size="14.00"> &#160;Module</text>
<polygon fill="#80b1d3" stroke="transparent" points="338,-10 338,-30 358,-30 358,-10 338,-10"/>
<text text-anchor="start" x="361.78" y="-15.4" font-family="sans-serif" font-size="14.00"> &#160;Bootstrap</text>
<polygon fill="#fdb462" stroke="transparent" points="435,-10 435,-30 455,-30 455,-10 435,-10"/>
<text text-anchor="start" x="458.67" y="-15.4" font-family="sans-serif" font-size="14.00"> &#160;Providers</text>
<polygon fill="#fb8072" stroke="transparent" points="531,-10 531,-30 551,-30 551,-10 531,-10"/>
<text text-anchor="start" x="554.73" y="-15.4" font-family="sans-serif" font-size="14.00"> &#160;Exports</text>
<g id="clust1" class="cluster">
<title>cluster_LotteryComponentsModule</title>
<polygon fill="none" stroke="black" stroke-dasharray="1,5" points="8,-70 8,-268 738,-268 738,-70 8,-70"/>
</g>
<g id="clust4" class="cluster">
<title>cluster_LotteryComponentsModule_exports</title>
<polygon fill="none" stroke="black" points="16,-208 16,-260 730,-260 730,-208 16,-208"/>
</g>
<g id="clust3" class="cluster">
<title>cluster_LotteryComponentsModule_imports</title>
<polygon fill="none" stroke="black" points="24,-78 24,-130 724,-130 724,-78 24,-78"/>
</g>
<!-- LotteryListTicketsModule -->
<g id="node1" class="node">
<title>LotteryListTicketsModule</title>
<polygon fill="#8dd3c7" stroke="black" points="715.74,-122 712.74,-126 691.74,-126 688.74,-122 552.26,-122 552.26,-86 715.74,-86 715.74,-122"/>
<text text-anchor="middle" x="634" y="-99.8" font-family="Times,serif" font-size="14.00">LotteryListTicketsModule</text>
</g>
<!-- LotteryComponentsModule -->
<g id="node5" class="node">
<title>LotteryComponentsModule</title>
<polygon fill="#8dd3c7" stroke="black" points="363.54,-187 360.54,-191 339.54,-191 336.54,-187 192.46,-187 192.46,-151 363.54,-151 363.54,-187"/>
<text text-anchor="middle" x="278" y="-164.8" font-family="Times,serif" font-size="14.00">LotteryComponentsModule</text>
</g>
<!-- LotteryListTicketsModule&#45;&gt;LotteryComponentsModule -->
<g id="edge1" class="edge">
<title>LotteryListTicketsModule&#45;&gt;LotteryComponentsModule</title>
<path fill="none" stroke="black" d="M662.04,-122.27C662.04,-140.56 662.04,-166 662.04,-166 662.04,-166 373.71,-166 373.71,-166"/>
<polygon fill="black" stroke="black" points="373.71,-162.5 363.71,-166 373.71,-169.5 373.71,-162.5"/>
</g>
<!-- LotteryNumbersModule -->
<g id="node2" class="node">
<title>LotteryNumbersModule</title>
<polygon fill="#8dd3c7" stroke="black" points="534.08,-122 531.08,-126 510.08,-126 507.08,-122 381.92,-122 381.92,-86 534.08,-86 534.08,-122"/>
<text text-anchor="middle" x="458" y="-99.8" font-family="Times,serif" font-size="14.00">LotteryNumbersModule</text>
</g>
<!-- LotteryNumbersModule&#45;&gt;LotteryComponentsModule -->
<g id="edge2" class="edge">
<title>LotteryNumbersModule&#45;&gt;LotteryComponentsModule</title>
<path fill="none" stroke="black" d="M483.35,-122.01C483.35,-138.05 483.35,-159 483.35,-159 483.35,-159 373.6,-159 373.6,-159"/>
<polygon fill="black" stroke="black" points="373.6,-155.5 363.6,-159 373.6,-162.5 373.6,-155.5"/>
</g>
<!-- LotteryResultLotteryModule -->
<g id="node3" class="node">
<title>LotteryResultLotteryModule</title>
<polygon fill="#8dd3c7" stroke="black" points="363.74,-122 360.74,-126 339.74,-126 336.74,-122 186.26,-122 186.26,-86 363.74,-86 363.74,-122"/>
<text text-anchor="middle" x="275" y="-99.8" font-family="Times,serif" font-size="14.00">LotteryResultLotteryModule</text>
</g>
<!-- LotteryResultLotteryModule&#45;&gt;LotteryComponentsModule -->
<g id="edge3" class="edge">
<title>LotteryResultLotteryModule&#45;&gt;LotteryComponentsModule</title>
<path fill="none" stroke="black" d="M278,-122.11C278,-122.11 278,-140.99 278,-140.99"/>
<polygon fill="black" stroke="black" points="274.5,-140.99 278,-150.99 281.5,-140.99 274.5,-140.99"/>
</g>
<!-- LotteryTicketModule -->
<g id="node4" class="node">
<title>LotteryTicketModule</title>
<polygon fill="#8dd3c7" stroke="black" points="168.02,-122 165.02,-126 144.02,-126 141.02,-122 31.98,-122 31.98,-86 168.02,-86 168.02,-122"/>
<text text-anchor="middle" x="100" y="-99.8" font-family="Times,serif" font-size="14.00">LotteryTicketModule</text>
</g>
<!-- LotteryTicketModule&#45;&gt;LotteryComponentsModule -->
<g id="edge4" class="edge">
<title>LotteryTicketModule&#45;&gt;LotteryComponentsModule</title>
<path fill="none" stroke="black" d="M119.92,-122.02C119.92,-139.37 119.92,-163 119.92,-163 119.92,-163 182.02,-163 182.02,-163"/>
<polygon fill="black" stroke="black" points="182.02,-166.5 192.02,-163 182.02,-159.5 182.02,-166.5"/>
</g>
<!-- LotteryListTicketsModule  -->
<g id="node6" class="node">
<title>LotteryListTicketsModule </title>
<polygon fill="#fb8072" stroke="black" points="721.74,-252 554.26,-252 554.26,-216 721.74,-216 721.74,-252"/>
<text text-anchor="middle" x="638" y="-229.8" font-family="Times,serif" font-size="14.00">LotteryListTicketsModule </text>
</g>
<!-- LotteryComponentsModule&#45;&gt;LotteryListTicketsModule  -->
<g id="edge5" class="edge">
<title>LotteryComponentsModule&#45;&gt;LotteryListTicketsModule </title>
<path fill="none" stroke="black" stroke-dasharray="5,2" d="M363.9,-173C461.74,-173 608.21,-173 608.21,-173 608.21,-173 608.21,-205.7 608.21,-205.7"/>
<polygon fill="black" stroke="black" points="604.71,-205.7 608.21,-215.7 611.71,-205.7 604.71,-205.7"/>
</g>
<!-- LotteryNumbersModule  -->
<g id="node7" class="node">
<title>LotteryNumbersModule </title>
<polygon fill="#fb8072" stroke="black" points="536.58,-252 381.42,-252 381.42,-216 536.58,-216 536.58,-252"/>
<text text-anchor="middle" x="459" y="-229.8" font-family="Times,serif" font-size="14.00">LotteryNumbersModule </text>
</g>
<!-- LotteryComponentsModule&#45;&gt;LotteryNumbersModule  -->
<g id="edge6" class="edge">
<title>LotteryComponentsModule&#45;&gt;LotteryNumbersModule </title>
<path fill="none" stroke="black" stroke-dasharray="5,2" d="M363.92,-180C399.52,-180 432.65,-180 432.65,-180 432.65,-180 432.65,-205.72 432.65,-205.72"/>
<polygon fill="black" stroke="black" points="429.15,-205.72 432.65,-215.72 436.15,-205.72 429.15,-205.72"/>
</g>
<!-- LotteryResultLotteryModule  -->
<g id="node8" class="node">
<title>LotteryResultLotteryModule </title>
<polygon fill="#fb8072" stroke="black" points="363.74,-252 182.26,-252 182.26,-216 363.74,-216 363.74,-252"/>
<text text-anchor="middle" x="273" y="-229.8" font-family="Times,serif" font-size="14.00">LotteryResultLotteryModule </text>
</g>
<!-- LotteryComponentsModule&#45;&gt;LotteryResultLotteryModule  -->
<g id="edge7" class="edge">
<title>LotteryComponentsModule&#45;&gt;LotteryResultLotteryModule </title>
<path fill="none" stroke="black" stroke-dasharray="5,2" d="M277.93,-187.11C277.93,-187.11 277.93,-205.99 277.93,-205.99"/>
<polygon fill="black" stroke="black" points="274.43,-205.99 277.93,-215.99 281.43,-205.99 274.43,-205.99"/>
</g>
<!-- LotteryTicketModule  -->
<g id="node9" class="node">
<title>LotteryTicketModule </title>
<polygon fill="#fb8072" stroke="black" points="164.02,-252 23.98,-252 23.98,-216 164.02,-216 164.02,-252"/>
<text text-anchor="middle" x="94" y="-229.8" font-family="Times,serif" font-size="14.00">LotteryTicketModule </text>
</g>
<!-- LotteryComponentsModule&#45;&gt;LotteryTicketModule  -->
<g id="edge8" class="edge">
<title>LotteryComponentsModule&#45;&gt;LotteryTicketModule </title>
<path fill="none" stroke="black" stroke-dasharray="5,2" d="M192.26,-175C137.16,-175 75.83,-175 75.83,-175 75.83,-175 75.83,-205.98 75.83,-205.98"/>
<polygon fill="black" stroke="black" points="72.33,-205.98 75.83,-215.98 79.33,-205.98 72.33,-205.98"/>
</g>
</g>
</svg>
